<?xml version="1.0" encoding="utf-8"?>
<!DOCTYPE svg PUBLIC "-//W3C//DTD SVG 20010904//EN" "http://www.w3.org/TR/2001/REC-SVG-20010904/DTD/svg10.dtd">
<svg version="1.0" xmlns="http://www.w3.org/2000/svg" width="1920px" height="1920px" viewBox="0 0 1920 1920" preserveAspectRatio="xMidYMid meet">
 <g fill="#000000">
  <path d="M778.3 1699.9 c-5.9 -0.8 -10.7 -3.2 -13.5 -7 -2.7 -3.6 -5.8 -25.6 -3.8 -26.9 1.1 -0.7 1.1 -2.2 0.1 -9.2 -6.5 -45 -8.1 -65.5 -9.1 -115.3 -0.9 -46 -1.7 -55 -7.1 -82 -5.5 -27.2 -14.5 -58.5 -16.9 -58.5 -0.3 0 -2.1 3 -4 6.6 -6 11.4 -11.1 13.8 -18.6 8.8 -23.2 -15.6 -39.8 -45.4 -46.9 -84.2 -10.1 -54.4 -0.3 -125.6 29.5 -215.4 19.6 -59 45.5 -105.8 70.2 -127 5.2 -4.4 15.6 -12.1 18.1 -13.2 0.9 -0.5 0.9 -0.8 0 -1.2 -0.7 -0.3 -1.3 -1 -1.3 -1.5 0 -1.9 6.5 -0.8 15.4 2.5 31.4 11.8 71.8 20.7 115.1 25.5 76.3 8.5 143.8 2.9 199.3 -16.4 12.5 -4.4 19.2 -5.6 19.2 -3.5 0 0.6 -0.4 1 -1 1 -0.5 0 -1 0.5 -1 1 0 0.6 0.6 1 1.3 1 3.4 0 18.1 11.1 28.3 21.4 40.1 40.6 70.9 122.7 82.8 221 4.1 33.7 4.7 81.6 1.2 104.1 -5.9 38.9 -16.9 64.3 -35 81.3 -8 7.5 -11 8 -15.7 3 -2.9 -3.2 -2.9 -3.2 -2.9 -0.3 0 3.3 -6.7 43.2 -7.4 44.4 -1.5 2.4 -3.9 34.4 -5.1 67.6 -2 55.2 -5.7 96.5 -12.1 136.3 -0.5 3.4 -0.4 4.2 0.7 4 1.6 -0.3 1.6 -0.1 0 13.5 -1.1 9.7 -3.1 13.5 -8.4 16.5 -2.9 1.5 -8.6 1.7 -64.7 2 -33.8 0.2 -63.4 0 -65.8 -0.3 -10 -1.5 -18 -14.8 -21.7 -36.2 -1.2 -6.8 -1.2 -7.8 0.2 -8.8 1.3 -1 1.4 -2.1 0.4 -8.6 -2.8 -17.9 -4.2 -31.9 -5.1 -53.9 -1.5 -36.8 -2.4 -43.3 -6.6 -48.7 -4.7 -6.1 -8.1 -7.1 -26 -7.4 -17.9 -0.3 -20.9 0.5 -26.4 6.7 -4.8 5.5 -5.5 9.7 -7 46.9 -1 22.1 -2.1 34.1 -5.5 56.5 -1.5 10.4 -1.8 14.7 -0.8 12.3 0.7 -1.8 2.3 -1.6 2.3 0.2 0 0.9 -1.2 6.4 -2.6 12.3 -4.1 16.7 -9 24.7 -16.7 27.7 -3.6 1.4 -11.8 1.6 -62.2 1.8 -31.9 0.1 -60.3 -0.1 -63.2 -0.4z m236.7 -225.4 c17.4 -2.3 31.3 -5 45.2 -9 92.3 -26.6 134.6 -96.8 118.2 -196.5 -1.7 -10.1 -18.4 -82.3 -26.1 -112.5 -2.5 -9.9 -6.5 -24.2 -9 -31.7 -5.1 -16.2 -16.3 -39.9 -22.7 -48.4 -16.4 -21.9 -40.2 -25.9 -139.6 -23.6 -34.6 0.8 -53.1 1.6 -61.5 2.8 -31.7 4.3 -49.6 12.7 -64.1 30.1 -4.3 5.3 -9.3 14.2 -22.3 40.3 -33.3 66.9 -40.1 82.3 -53.6 122 -8.8 25.9 -34.5 112 -34.5 115.5 0 2.4 9.1 17.2 16.8 27.5 19.5 25.7 40.8 43.3 70.7 58 28 13.9 54.8 21.5 91.5 26.1 23.5 2.9 66.6 2.6 91 -0.6z"/>
  <path d="M892.8 930.7 c-4.4 -3.6 -3.9 -8.2 1.5 -13.4 12.6 -12.1 34.9 -21.5 61.3 -26 16.9 -2.8 65.1 -2.6 82.4 0.5 19 3.3 33.1 7.6 46.5 14.2 20.5 10.1 25.2 15.6 18.8 22.2 -3.8 4 -8.3 3.8 -13.5 -0.7 -19.2 -16.4 -69.3 -27.7 -109 -24.5 -32.9 2.6 -59 11.4 -73.6 24.6 -6.8 6.1 -9.9 6.8 -14.4 3.1z"/>
  <path d="M995.6 874.4 c-14 -3.4 -28.8 -14.9 -34.8 -27.2 -5.3 -10.7 -5 -24.8 0.8 -36.3 3 -6.1 11.2 -13.3 17.9 -15.8 11.7 -4.4 33.2 -5 48.4 -1.5 12.8 2.9 22.6 9.9 27.9 19.9 2.6 4.7 2.7 5.8 2.7 19 0 13.5 -0.1 14.2 -2.9 19.8 -9.2 18 -36 27.9 -60 22.1z"/>
  <path d="M823 801.3 c-20.4 -2.3 -38.2 -11.3 -52.2 -26.1 -17.1 -18.4 -25.9 -43.6 -24.5 -70.7 0.8 -14.6 3.5 -24.7 10.2 -38 11.7 -23.2 31.1 -41.8 57.3 -55 16 -8 29.3 -11.3 49.7 -12.2 36.3 -1.6 71.3 9.8 95 31 16 14.3 22.9 28.4 25.6 52 3.4 31 -5.5 56 -26.9 75.8 -21.5 19.9 -61.3 37.5 -95.7 42.4 -9.2 1.3 -30 1.7 -38.5 0.8z m56.8 -27.7 c26 -8.9 38.1 -25.7 30.3 -41.9 -5.7 -11.7 -23.8 -20.8 -38.5 -19.3 -12.9 1.3 -27.7 12 -33.8 24.3 -4.1 8.3 -4.2 13.6 -0.4 21.8 4.1 9 10.3 14.5 19.6 17.6 4 1.4 15 0.1 22.8 -2.5z"/>
  <path d="M1155 799.3 c-18.8 -3.2 -44.2 -13.5 -60.9 -24.7 -17.6 -11.8 -28.7 -23.8 -35.5 -38.7 -5.1 -11.1 -6.8 -20.3 -6.8 -35.4 0 -14.2 1.1 -21.8 4.8 -33.7 7.6 -24 31.2 -42.8 64.2 -51 7.4 -1.9 11.5 -2.2 27.7 -2.2 16.4 -0.1 20.2 0.2 27.8 2.2 17.5 4.4 33.4 13.8 47.8 28.1 21.3 21.4 30.9 43.9 30.9 72.6 0 15.1 -1.8 24.6 -6.9 37 -10.1 24.7 -28.9 41.2 -52.3 45.9 -9.7 2 -29.3 1.9 -40.8 -0.1z m4.4 -23.5 c4.8 -1.5 11.3 -7.6 13.9 -13.1 2.3 -4.8 1.6 -9.5 -2.4 -17.6 -8.6 -17.3 -29.4 -25.2 -43.2 -16.6 -5.3 3.3 -10.2 9.8 -11.8 15.8 -2.9 10.9 10.1 24.7 29.1 30.8 6.6 2.2 9 2.3 14.4 0.7z"/>
  <path d="M1270.3 590.8 c-0.5 -0.7 -2 -3.8 -3.2 -6.8 -14.9 -35.8 -44.1 -75.9 -76.5 -105 -9.6 -8.7 -12.6 -11.9 -12.6 -13.8 0 -2 0.3 -2.2 1.4 -1.3 1.1 0.9 1.8 -0.5 4.1 -7.6 10.4 -33.4 31.4 -52.7 64 -58.8 13.5 -2.6 35.9 -1.7 48 1.9 19.5 5.7 35.5 15.8 47.4 29.7 12.2 14.3 21.8 33.7 25.7 51.4 2.6 11.9 2.4 32.4 -0.4 43.5 -7.5 29.1 -30 54.8 -55.7 63.6 -6.7 2.3 -9.8 2.8 -19 2.8 -6 0.1 -12.9 -0.2 -15.2 -0.7 -3.5 -0.6 -4.3 -0.4 -4.3 0.8 0 1.8 -2.4 2 -3.7 0.3z"/>
  <path d="M637.4 575.5 c0.4 -1.3 -0.7 -1.5 -7 -1.5 -17.8 0 -34.4 -6.8 -51.3 -21.1 -13.6 -11.5 -22.8 -25.9 -27.2 -42.4 -3 -11 -3.2 -36 -0.5 -48.5 6.3 -29.2 22.3 -54.9 42.6 -68.7 27.8 -18.9 66.1 -23.8 96 -12.2 9.2 3.5 21.3 11.2 28.7 18.2 14.1 13.2 26.1 34.5 29.8 52.9 0.4 1.9 1 2.6 2 2.2 1.1 -0.5 1.5 0.1 1.5 1.7 0 1.7 -1.4 3.3 -4.3 5.4 -11.2 7.9 -30.6 24.4 -43.6 37 -22.6 22 -39.8 42.7 -55.6 67 -5.6 8.6 -8.1 11.5 -9.6 11.5 -1.5 0 -1.9 -0.5 -1.5 -1.5z"/>
 </g>
 <g fill="#6e6969">
  <path d="M898 1740.8 c-12.3 -0.7 -15.6 -0.8 -18.5 -0.6 -2.3 0.1 -30.2 -1.3 -32.5 -1.7 -1.4 -0.2 -6.1 -0.7 -10.5 -1 -22.5 -1.7 -55.6 -5.1 -63.5 -6.6 -4.5 -0.8 -13.8 -2.3 -32.5 -5.4 -4 -0.6 -13 -2.6 -14.5 -3.2 -0.8 -0.4 -1.8 -0.6 -2.2 -0.5 -0.4 0.1 -1.9 -0.3 -3.3 -0.8 -1.4 -0.5 -4 -1.2 -5.8 -1.5 -1.7 -0.4 -3.6 -0.9 -4.2 -1.4 -0.5 -0.4 -4.1 -1.8 -7.9 -3.1 -8.8 -3 -14.3 -6.1 -18.9 -10.5 -8.6 -8.4 -2.6 -16.2 18.8 -24.4 4.1 -1.6 7.5 -2.7 7.5 -2.5 0 0.3 0.9 0 2.1 -0.7 3.9 -2 31.8 -8.2 43.3 -9.6 2.2 -0.2 4.7 -0.8 5.7 -1.3 1.4 -0.8 1.8 0.2 2.9 8.3 1.5 11.6 2.5 14.9 5.3 17.5 5.6 5.3 5.2 5.3 68.8 5.2 55.7 0 59.3 -0.1 63.3 -1.9 7.3 -3.2 12.1 -11.1 15.7 -26.1 1.2 -5.2 2.9 -10.1 3.6 -10.8 0.7 -0.7 1.3 -1.9 1.3 -2.7 0 -0.7 0.6 -1.5 1.3 -1.8 2.6 -0.9 57.8 -0.7 57.2 0.3 -0.3 0.6 0.1 1 0.9 1 0.8 0 1.8 -0.4 2.1 -1 0.3 -0.5 2.9 -0.7 5.8 -0.4 2.9 0.3 6.4 0.6 7.8 0.6 2.5 0.1 2.7 0.5 3.3 5.4 0.7 6.3 4.7 19 7.8 25.2 3.2 6.2 8.7 10.9 14 11.7 2.4 0.3 30.6 0.5 62.8 0.3 53.3 -0.3 58.8 -0.5 61.7 -2 5.5 -3 7.3 -6.8 8.4 -17 0.5 -5.1 1.4 -9.5 2.1 -9.9 1.2 -0.8 3.5 -0.5 11.1 1.2 2.6 0.6 5.4 0.8 6.2 0.5 0.8 -0.3 1.5 -0.2 1.5 0.2 0 0.4 2.6 1.3 5.8 2 3.1 0.7 7.7 1.9 10.2 2.6 2.5 0.8 7.3 2.2 10.8 3.1 3.4 1 6.2 2.1 6.2 2.4 0 0.4 0.8 0.7 1.8 0.8 1.7 0.1 8.6 3.2 13 5.7 1.3 0.7 3.7 2.8 5.5 4.6 4.3 4.4 4.3 10 0.1 13.7 -3 2.5 -12.4 7.7 -12.4 6.8 0 -0.3 -0.9 0.3 -2 1.3 -1.2 0.9 -2.4 1.7 -2.8 1.8 -0.4 0 -5.2 1.5 -10.7 3.3 -10 3.3 -24.9 6.9 -31.5 7.7 -1.9 0.2 -6.4 1 -10 1.8 -3.6 0.8 -11 2.1 -16.4 3 -5.5 0.8 -10.3 2.1 -10.7 2.8 -0.6 0.9 -0.9 0.9 -0.9 0.1 0 -1.3 -1.1 -1.2 -17.8 0.7 -5.7 0.7 -10.6 1 -10.9 0.6 -0.3 -0.3 -1.3 -0.1 -2.3 0.4 -0.9 0.5 -5.6 1.2 -10.4 1.4 -4.8 0.3 -9.1 0.8 -9.6 1.1 -0.5 0.3 -1.2 0 -1.6 -0.6 -0.5 -0.8 -0.8 -0.8 -1.3 0 -0.4 0.7 -5.9 1.3 -13.7 1.7 -7.1 0.3 -14.7 0.7 -16.9 0.9 -23.1 2.2 -119.5 3.1 -149.5 1.3z"/>
 </g>
 <g fill="#ffffff">
  <path d="M946 1480 c-45.7 -2.2 -82.1 -11 -116.5 -28 -36.4 -17.9 -63 -42.5 -83.4 -77 -5.9 -10 -5.9 -10 -3.5 -18.2 1.4 -4.6 5.4 -18.4 9 -30.8 22.6 -77.7 35.5 -114.5 53.2 -151.5 25.2 -52.6 42.1 -85.1 47.6 -91.8 14.6 -17.5 32.6 -25.9 64.6 -30.2 22.4 -2.9 112.8 -4.5 145 -2.5 34.5 2.2 50.2 8.2 61.6 23.4 6.4 8.5 17.6 32.2 22.7 48.4 5.5 16.9 10.7 37.5 23.6 92.2 14 60.1 15.7 71.9 14.8 102.9 -0.6 20.5 -2.7 33.7 -7.9 50 -19.8 62 -74.2 99.9 -158.3 110.5 -21.7 2.7 -49.5 3.7 -72.5 2.6z"/>
  <path d="M936 1008 c-115.4 -7.7 -196.5 -37.6 -252.1 -93 -48.3 -48.2 -75.5 -114.9 -82.9 -203.1 -2.4 -28.8 3.3 -62.4 16 -94.6 40.1 -101.3 143.1 -190.4 255.7 -221.3 54.2 -14.9 99.3 -16 154.8 -3.9 117.1 25.6 211.3 103 248.9 204.4 8.7 23.6 14.8 51 17.7 79.9 1.5 15.6 0.6 61.8 -1.6 77.6 -8 58.1 -25.7 103.9 -55.4 143.4 -9.7 12.9 -29.7 33.5 -42.6 43.9 -44.9 36.1 -100.7 57.4 -171.2 65.3 -16.5 1.8 -67.9 2.6 -87.3 1.4z m-18.1 -92.8 c31.5 -16.3 81.9 -20.5 127 -10.5 20.3 4.4 39 12.2 48 20 4.2 3.6 4.2 3.6 7.1 0.8 2.9 -2.8 2.9 -2.8 -1.8 -6.7 -6.9 -5.7 -26.9 -15.2 -39.7 -18.8 -21.7 -6.1 -33.1 -7.4 -62.5 -7.5 -21.2 0 -28.7 0.4 -37.4 1.8 -26.8 4.5 -51 15 -62.6 27.1 -3.5 3.7 -3.5 3.7 -0.5 6 2.9 2.4 2.9 2.4 8.8 -3 3.3 -2.9 9.4 -7.1 13.6 -9.2z m101 -43.3 c14.4 -2.3 28 -11.5 33.7 -22.6 2.7 -5.4 2.9 -6.6 2.9 -16.8 0 -10 -0.3 -11.5 -2.7 -16 -3.3 -6.3 -9.9 -12.6 -16.4 -15.9 -14.1 -7 -38.8 -8.2 -53.9 -2.5 -13.9 5.2 -24.2 22.1 -22.1 36.2 2.4 15.6 20 32.7 38.2 37.1 7.3 1.8 12 1.9 20.3 0.5z m-160.4 -74.4 c34.4 -4.9 74.2 -22.5 95.7 -42.4 15.9 -14.7 24.6 -31.3 26.8 -51.5 1.8 -15.3 -1.5 -35.8 -7.7 -47.9 -16.3 -32.4 -65.6 -56.2 -110.3 -53.3 -18.3 1.2 -31.1 4.6 -46.2 12.1 -26.2 13.2 -45.6 31.8 -57.3 55 -11.8 23.5 -13.4 45.4 -5.1 69.6 10.2 30.1 32.5 50.7 61.6 57.3 12.6 2.9 27.7 3.3 42.5 1.1z m334.3 -1.1 c11 -2.2 24.2 -8.9 32.3 -16.2 16.5 -15.1 26.9 -39.8 26.9 -63.7 0 -25.5 -10.5 -49.1 -30.9 -69.6 -14.4 -14.3 -30.4 -23.7 -47.8 -28.1 -12.5 -3.2 -36.8 -3.2 -49.5 0 -25.6 6.3 -45.4 18.9 -56.7 35.8 -8 12 -12.2 27.5 -12.2 45.7 -0.1 17.8 4.8 32.9 15.2 46.8 13.4 18.1 38.1 34.1 67.9 43.9 20.3 6.8 39.1 8.6 54.8 5.4z"/>
  <path d="M854 779.1 c-9.3 -3.1 -15.5 -8.6 -19.7 -17.6 -2.3 -4.9 -2.8 -7.4 -2.8 -13.5 0 -10.1 4 -18.4 12.5 -26.3 8.9 -8.3 16.9 -11.8 27.8 -12.5 10.4 -0.5 17.1 0.8 25.5 5 12.9 6.4 18.1 14.3 18.2 27.3 0 6.4 -0.5 9 -2.3 12.7 -6.7 13.6 -26.9 24.5 -47.2 25.4 -5.2 0.2 -10.6 0 -12 -0.5z"/>
  <path d="M1142 778.1 c-19.5 -6.3 -31 -18.7 -29.7 -32.1 0.9 -9.9 6.3 -17.7 15.3 -22 6.6 -3.2 18.5 -3.2 26.9 0 12.2 4.7 22.2 18.1 23.2 31.3 0.7 7.7 -1.1 12.2 -7.2 18.2 -6.5 6.6 -17.2 8.3 -28.5 4.6z"/>
 </g>
</svg>